<?xml version="1.0" encoding="UTF-8" standalone="no"?>
<svg
   width="960"
   height="960"
   viewBox="0 0 960 960"
   version="1.1"
   id="svg1"
   xmlns="http://www.w3.org/2000/svg"
   xmlns:svg="http://www.w3.org/2000/svg">
  <defs
     id="defs1" />
  <path
     d="m250.945 767.492-11.147-2.945-8.908-4.47-8.907-4.47-4.862-3.558-4.861-3.558-8.31-8.173-8.308-8.174-5.492-8.255-5.492-8.256-4.04-9.975-4.038-9.976-1.91-9.368-1.91-9.368v-15.707l-28.259-.413-28.258-.414-10.939-5.61-10.938-5.612-27.347-11.858-27.347-11.858-5.73-2.876-5.729-2.876-1.259-2.352-1.259-2.353v-8.851l6.685-14.063 6.685-14.063v-3.053l-8.812-13.458-8.812-13.458-10.269-16.043L.904 515.985l-.452-6.776-.453-6.776 6.26-25.524 6.26-25.523 3.4-15.193L19.318 421l8.112-35.854 8.111-35.854 2.375-9.724 2.375-9.723 2.122-4.16 2.12-4.16 16.67-14.303L77.87 292.92l17.917-15.569 17.918-15.569 11.634-10.33 11.635-10.331 15.677-13.37 15.678-13.37 14.281-12.424 14.282-12.425 226.45-.101 226.452-.102 2.133 2.634 2.133 2.634-.002 1.992-.002 1.992-3.642 21.878-3.642 21.877-.002 3.342-.002 3.343 89.636.011 89.637.011 5.613 1.704 5.613 1.704 5.326 2.712 5.325 2.711 8.64 8.637 8.64 8.637 3.053 6.077 3.052 6.077 6.784 18.84 6.783 18.838 9.688 26.739 9.688 26.739 9.893 26.739 9.893 26.739 5.53 15.192 5.53 15.193 1.752 6.077 1.751 6.077 1.265 30.385 1.264 30.385-.588 20.402-.587 20.401 4.424 2.285 4.424 2.284 4.485 4.66 4.485 4.661 1.117 3.039 1.117 3.038-.202 24.959-.202 24.958-2.725 5.63-2.726 5.63-2.99 1.96-2.992 1.96-54.681-.34-54.682-.34v5.077l.001 5.078-1.3 9.507-1.3 9.507-3.58 10.757-3.579 10.757-5.01 8.69-5.012 8.69-11.73 11.546-11.73 11.546-9.068 5.106-9.069 5.106-11.546 3.929-11.546 3.929-17.016.507-17.016.507-10.697-2.545-10.697-2.546-8.962-4.14-8.961-4.14-5.865-3.998-5.865-3.997-8.343-7.974-8.343-7.971-4.556-6.685-4.556-6.685-3.802-7.54-3.801-7.54-3.15-10.69-3.148-10.692-.686-12.52-.686-12.52-1.95.974-1.949.973-119.856.327-119.856.327-.842 10.387-.843 10.386-2.38 9.34-2.38 9.342-4.141 8.74-4.141 8.74-4.8 7.06-4.799 7.06-9.575 9.133-9.576 9.132-9.723 5.685-9.723 5.685-11.547 3.95-11.546 3.948-18.231.38-18.231.38zm55.251-19.982 11.29-3.804 6.941-4.411 6.942-4.41 9.422-9.635 9.421-9.633 5.394-11.183 5.395-11.183 1.896-9.368 1.896-9.368v-16.96l-1.772-8.423-1.772-8.424-3.01-7.999-3.011-7.998-4.39-6.864-4.391-6.863-5.716-6.123-5.715-6.123-9.06-6.122-9.061-6.122-8.105-2.743-8.106-2.742-7.545-1.484-7.545-1.485-11.751.764-11.752.764-6.525 1.773-6.526 1.772-6.844 3.291-6.843 3.29-7.379 5.195-7.378 5.195-6.599 7.13-6.599 7.13-4.005 7.518-4.005 7.519-2.427 7.02-2.427 7.019-1.248 5.469-1.248 5.47.05 13.369.05 13.37 1.689 6.076 1.69 6.077 3.32 7.832 3.32 7.83 4.597 6.754 4.597 6.754 6.694 6.316 6.694 6.316 7.506 4.851 7.506 4.852 7.837 2.608 7.836 2.607 5.765 1.049 5.764 1.048 13.977-.376 13.977-.377zm-39.243-32.243-6.077-1.478-6.394-3.48-6.394-3.481-6.13-6.482-6.13-6.48-3.015-6.588-3.016-6.587-1.302-7.393-1.302-7.393 1.302-7.394 1.302-7.393 3.032-6.622 3.031-6.622 6.73-7.054 6.728-7.054 6.526-3.196 6.526-3.195 5.33-1.23 5.33-1.228 6.16-.03 6.16-.03 6.602 1.956 6.602 1.958 4.554 2.32 4.554 2.319 6.85 6.85 6.85 6.85 3.617 7.979 3.618 7.98.632 9.212.631 9.212-2.098 7.217-2.097 7.217-3.165 5.4-3.165 5.4-5.174 5.03-5.175 5.028-5.915 3.22-5.915 3.219-7.153 1.863-7.153 1.863-4.91-.103-4.91-.103zm25.016-20.641 4.27-2.026 4.692-4.536 4.693-4.536 3.001-6.526 3.002-6.526-.63-6.95-.63-6.95-2.1-4.148-2.1-4.147-2.887-3.858-2.886-3.857-6.618-3.131-6.618-3.131H271.11l-5.117 2.562-5.117 2.562-4.059 3.819-4.058 3.819-3.12 6.077-3.12 6.077.014 6.685.015 6.684 1.88 4.424 1.88 4.423 4.677 5.187 4.676 5.186 6.077 2.914 6.077 2.913 7.942-.492 7.943-.492zm467.527 54.143 7.597-2.425 8.116-4.461 8.116-4.461 5.464-4.462 5.464-4.462 6.401-7.745 6.402-7.745 4.37-8.316 4.37-8.316 2.36-10.678 2.361-10.678.027-8.255.027-8.255-1.88-9.105-1.881-9.104-4.072-9.654-4.072-9.654-4.295-5.803-4.296-5.802-7.68-7.467-7.679-7.467-8.508-4.742-8.508-4.741-6.684-2.068-6.685-2.067-6.547-1.22-6.546-1.22-6.823.007-6.823.008-7.792 1.265-7.791 1.264-6.785 2.385-6.785 2.384-9.593 5.762-9.592 5.76-7.432 8.235-7.43 8.233-4.594 7.541-4.593 7.541-3.137 9.749-3.137 9.749-.592 13.977-.591 13.977 1.915 9.001 1.915 9.002 3.69 7.885 3.69 7.885 5.34 7.483 5.34 7.484 5.08 4.59 5.081 4.59 8.097 5.203 8.096 5.202 7.292 2.71 7.292 2.71 4.862 1.05 4.862 1.052 15.8-.444 15.8-.444zm-33.728-32.704-3.038-.475-5.47-1.967-5.469-1.967-6.556-4.272-6.556-4.27-5.303-7.205-5.304-7.205-2.586-8.512-2.585-8.511.682-9.018.682-9.019 3.677-7.857 3.677-7.858 6.287-6.647 6.286-6.647 5.24-3.07 5.24-3.071 7.675-1.968 7.675-1.967 8.482.71 8.482.71 8.726 4.312 8.726 4.312 6.102 6.677 6.102 6.676 3.119 6.594 3.12 6.594 1.37 6.392 1.371 6.392-.76 7.265-.759 7.264-3.016 6.59-3.017 6.59-3.916 4.943-3.915 4.944-7.045 5.186-7.044 5.186-5.948 1.975-5.948 1.976-7.723.347-7.724.346zm21.646-21.471 4.023-2.088 4.877-4.406 4.877-4.406 2.31-4.53 2.311-4.529.771-4.82.77-4.82-1.921-6.61-1.922-6.613-3.491-4.818-3.49-4.82-7.347-3.915-7.346-3.915-7.73.027-7.73.026-4.984 2.264-4.985 2.264-4.427 4.426-4.426 4.427-2.574 5.045-2.574 5.045-.638 7.032-.637 7.031 3.162 6.463 3.162 6.463 3.415 3.272 3.415 3.272 6.045 3.145 6.046 3.145 8.508-.485 8.508-.485zm-574.601-51.81 2.324-1.245 2.633-8.783 2.633-8.783 3.604-7.292 3.604-7.293 6.525-9.872 6.526-9.872 7.093-6.536 7.092-6.536 10.744-5.646 10.744-5.647-38.207-.056-38.208-.056-4.995 15.426-4.996 15.426-7.33 21.27-7.331 21.269-.815 2.084-.814 2.085 13.179.392 13.18.392 5.245.258 5.245.258zm448.826-1.083 1.627-1.928 2.668-10.81 2.668-10.811 3.72-8.476 3.72-8.475 4.286-6.7 4.286-6.7 9.174-9.602 9.175-9.603 8.229-5.47 8.23-5.472 7.938-3.6 7.94-3.599 11.647-3.026 11.648-3.027 12.398-.22 12.399-.219 9.982 2.095 9.983 2.094 8.433 2.763 8.434 2.762 9.434 5.37 9.435 5.371 9.245 9.135 9.245 9.135 6.225 9.307 6.224 9.307 4.323 11.335 4.323 11.336 2.618 8.836 2.618 8.837 2.287 1.224 2.287 1.223 45.848-.673 45.848-.672.945-1.487.944-1.488.02-20.17.018-20.169-2.558-2.315-2.559-2.315-28.13.38-28.13.38-5.79-3.707-5.79-3.705-3.63-5.724-3.63-5.724V525.51l1.186-4.136 1.187-4.137 2.763-2.95 2.764-2.95 4.212-1.764 4.212-1.765 21.311.145 21.312.145-.145-16.202-.144-16.202-6.032-17.015-6.032-17.016-12.399-33.424-12.399-33.423-7.218-19.447-7.219-19.446-7.327-21.165-7.327-21.165-2.95-5.033-2.95-5.034-4.898-5.048-4.9-5.048-5.215-2.785-5.216-2.785-92.512-.333-92.513-.333-2.624 17.349-2.624 17.349-1.77 11.546-1.771 11.546-4.927 35.855-4.926 35.854-2.961 18.839-2.962 18.839-2.529 18.839-2.529 18.838-1.816 12.762-1.816 12.762-3.678 24.308-3.678 24.308.113 47.951.113 47.952 1.495.98 1.496.981 6.98-.211 6.98-.211zm74.03-149.563-2.752-1.187-1.265-3.327-1.265-3.328.77-3.086.77-3.086 1.916-2.126 1.917-2.127h49.278l2.54 3.229 2.541 3.23-.516 1.936-.516 1.935-.71 3.209-.71 3.208-2.138.897-2.137.896-22.485.457-22.485.457zm.806-55.058-4.13-2.759-2.125-4.23-2.125-4.229-.002-56.76-.002-56.76 1.346-6.28 1.347-6.278 4.078-4.514 4.078-4.514 4.744-1.421 4.743-1.421h96.251l6.88 2.573 6.878 2.574 7.175 7.287 7.175 7.287 4.684 9.89 4.684 9.89 4.383 12.153 4.384 12.154 13.994 38.832 13.994 38.832v4.487l-2.983 2.983-2.983 2.983H700.604zm159.958-17.599-.86-2.127-8.872-24.308-8.872-24.308-6.298-18.163-6.297-18.163-2.827-5.537-2.827-5.538-3.742-5.132-3.743-5.133-4.857-2.478-4.858-2.478-47.638.318-47.638.318-.695 3.039-.695 3.038.373 54.39.373 54.389h150.832zm-271.69 185.35.03-37.982-99.963-.421-99.964-.421-28.198-.187-28.197-.186.85.7.851.7 7.293 4.671 7.292 4.67 8.508 8.757 8.508 8.756 5.897 9.833 5.897 9.833 2.201 6.425 2.201 6.425 2.064 8.204 2.064 8.204H584.71zm-434.701-67.472 33.799-101.774 18.223-53.478 18.222-53.477 9.13-26.74 9.128-26.738 9.118-26.74 9.118-26.738 1.7-6.02 1.699-6.021-.26-.241-.258-.242-11.803-.423-11.802-.422-2.016 5.283-2.017 5.283-21.59 43.94-21.591 43.941-15.218 32.209-15.217 32.208-6.068 12.762-6.067 12.761-8.494 17.624-8.494 17.623-11.812 24.308-11.811 24.308-3.978 8.508-3.978 8.508-17.028 35.247-17.029 35.246-9.253 18.514-9.253 18.514v3.156l3.342 1.367 3.342 1.367 20.662 9.088 20.662 9.088 10.331 4.982 10.331 4.982 1.216.004 1.215.004zm772.622 14.27v-25.552l-21.573.332-21.574.332.023 22.916.023 22.915 2.845 2.304 2.845 2.304h37.411zM59.78 539.805l8.695-17.927 21.609-44.97 21.608-44.97 15.483-32.208 15.483-32.208 15.496-32.816 15.496-32.816 13.661-28.562 13.662-28.562 4.664-10.535 4.663-10.534 3.715-7.358 3.714-7.358v-1.285h-13.537l-10.633 9.42-10.632 9.419-15.255 13.034-15.254 13.034-9.553 8.677-9.553 8.677-18.258 15.316-18.258 15.316-14.588 12.805-14.587 12.804-4.562 3.646-4.561 3.646-7.364 30.993-7.365 30.993-5.333 23.093-5.332 23.092-7.85 32.816-7.85 32.816 2.429 4.254 2.428 4.254 13.567 20.955 13.568 20.956.844.011.844.012zm525.564 3.628.705-5.755 3.007-20.662 3.006-20.661 1.86-14.585 1.86-14.585 2.955-19.447 2.955-19.446 4.897-32.816 4.897-32.816 4.828-34.031 4.827-34.032 6.121-41.931 6.122-41.932.008-1.523.008-1.523-176.496.308-176.497.308-10.214 30.385-10.214 30.385-16.166 48.008-16.167 48.009-14.784 43.147-14.784 43.147-12.115 35.854-12.114 35.854-3.832 11.196-3.832 11.196.554.5.553.502 133.087.865 133.087.865.441.439.442.439 75.145.046 75.146.047zm-296.569-64.039-2.983-2.983v-7.209l4.364-14.986 4.365-14.985 2.136-7.293 2.136-7.292 18.931-66.24 18.931-66.24 3.4-12.761 3.4-12.762 2.714-2.735 2.713-2.734h7.309l2.478 2.66 2.478 2.66v10.208l-3.148 10.77-3.148 10.772-17.64 61.377L319.574 421l-4.18 15.193-4.181 15.193-4.179 13.463-4.178 13.464-2.246 2.032-2.247 2.033h-6.604zm134.467-.237-2.862-2.005.696-8.022.697-8.022 9.752-37.678 9.752-37.677 7.368-28.562 7.368-28.562 7.377-29.778 7.378-29.777 1.44-3.023 1.44-3.022 3.304-1.162 3.305-1.163 3.34 1.175 3.339 1.174 1.652 3.447 1.652 3.447-9.272 37.24-9.271 37.242-4.264 15.192-4.264 15.193-12.907 51.047-12.906 51.047-1.83 2.127-1.832 2.127h-7.59z"
     id="path1"
     style="stroke:#000000;stroke-opacity:1;stroke-width:10;stroke-dasharray:none" />
</svg>
