<svg height="960" width="960" viewBox="0 0 734.4 734.4" xml:space="preserve" xmlns="http://www.w3.org/2000/svg">
  <path d="M612.972 103.12c-35.104-17.915-70.04-19.59-71.51-19.65a18 18 0 0 0-.884-.02h-55.564c.004-.168.026-.328.026-.499 0-32.174-15.313-57.708-43.117-71.895C422.558 1.175 403.672.109 401.582.023a17 17 0 0 0-.884-.023H333.7q-.444 0-.884.02c-2.09.09-20.976 1.152-40.34 11.033-27.806 14.189-43.118 39.723-43.118 71.896 0 .17.02.331.026.498h-55.563q-.444 0-.885.02c-1.47.061-36.404 1.735-71.511 19.65-33.89 17.292-74.286 52.89-74.286 124.258 0 11.497 9.32 20.82 20.82 20.82h18.294L166.757 717.1c1.716 9.993 10.38 17.299 20.519 17.299h359.848a20.82 20.82 0 0 0 20.518-17.3l80.505-468.905h18.294c11.497 0 20.82-9.322 20.82-20.82-.001-71.368-40.4-106.966-74.289-124.255M90.476 206.556c5.064-29.392 21.415-51.47 48.798-65.794 25.526-13.347 51.994-15.465 55.123-15.675h345.606c3.102.206 28.896 2.287 54.04 15.12 28.034 14.306 44.749 36.57 49.875 66.348zM290.998 82.95c0-16.28 6.187-27.187 19.471-34.319 10.667-5.727 22.047-6.841 23.863-6.99h65.69c2.084.17 13.345 1.323 23.905 6.99C437.21 55.764 443.4 66.671 443.4 82.95c0 .17.02.331.027.498H290.974c.002-.167.024-.33.024-.498m238.574 609.811H204.824l-76.326-444.566h477.4z"/>
  <path d="M367.198 623.484c11.497 0 20.82-9.322 20.82-20.82V309.491c0-11.497-9.322-20.82-20.82-20.82s-20.82 9.321-20.82 20.82v293.173c0 11.498 9.323 20.82 20.82 20.82m-122.662-18.98c.962 10.827 10.048 18.98 20.714 18.98q.924 0 1.863-.082c11.454-1.016 19.915-11.127 18.899-22.579L259.988 307.65c-1.017-11.454-11.118-19.93-22.58-18.899-11.455 1.017-19.915 11.124-18.898 22.58zm222.747 18.898q.938.082 1.863.082c10.667 0 19.755-8.153 20.716-18.98l26.024-293.175c1.017-11.454-7.442-21.561-18.897-22.579-11.453-1.027-21.562 7.445-22.58 18.899l-26.025 293.173c-1.016 11.453 7.445 21.564 18.899 22.58"/>
</svg>
